<svg data-v-fde0c5aa="" xmlns="http://www.w3.org/2000/svg" viewBox="0 0 300 300" class="iconAbove"><!----><defs data-v-fde0c5aa=""><!----></defs><rect data-v-fde0c5aa="" fill="#FDF4F1" x="0" y="0" width="300px" height="300px" class="logo-background-square"></rect><defs data-v-fde0c5aa=""><!----></defs><g data-v-fde0c5aa="" id="9e6758f4-feeb-4f88-a731-3a89db3eace6" fill="#36231D" transform="matrix(4.104183208563325,0,0,4.104183208563325,17.086030009986228,166.98263704518538)"><path d="M4.59 15.22C6.27 15.22 7.99 14.50 7.99 13.30C7.99 12.64 7.27 12.38 6.61 12.46C6.40 13.90 5.67 14.60 4.68 14.60C3.23 14.60 2.55 13.12 2.55 10.15C2.55 7.18 3.25 5.70 4.73 5.70C5.68 5.70 6.27 6.31 6.41 7.62C7.28 7.64 7.74 7.15 7.74 6.68C7.74 5.68 6.22 5.08 4.70 5.08C2.20 5.08 0.71 6.90 0.71 10.15C0.71 13.40 2.16 15.22 4.59 15.22ZM12.33 15.22C14.46 15.22 15.71 13.80 15.71 11.44C15.71 9.04 14.46 7.64 12.33 7.64C10.21 7.64 8.97 9.04 8.97 11.44C8.97 13.80 10.21 15.22 12.33 15.22ZM12.33 14.62C11.26 14.62 10.72 13.52 10.72 11.44C10.72 9.32 11.26 8.23 12.33 8.23C13.41 8.23 13.94 9.32 13.94 11.44C13.94 13.52 13.41 14.62 12.33 14.62ZM23.46 13.13L23.46 10.49C23.46 8.60 22.75 7.64 21.21 7.64C20.03 7.64 19.24 8.25 18.86 9.32C18.86 8.19 18.35 7.64 17.54 7.64C16.88 7.64 16.51 8.01 16.51 8.51C16.51 8.71 16.56 8.88 16.67 9.06C16.77 8.90 16.94 8.88 17.05 8.88C17.29 8.88 17.40 9.07 17.42 9.60L17.42 14.27C17.42 14.85 17.82 15.22 18.38 15.22C18.83 15.22 19.17 14.99 19.32 14.85C19.04 14.18 19.04 13.68 19.04 11.70C19.04 9.48 19.80 8.48 20.68 8.48C21.59 8.48 21.83 9.30 21.84 10.72L21.84 14.35C21.84 14.88 22.25 15.22 22.78 15.22C23.18 15.22 23.49 15.05 23.73 14.84C23.51 14.29 23.48 13.58 23.46 13.13ZM27.41 7.84L27.23 7.84C27.26 7.27 27.33 6.80 27.45 6.33C27.31 6.20 27.01 5.96 26.53 5.96C25.98 5.96 25.58 6.29 25.58 6.82L25.58 7.84L24.99 7.84C24.75 7.84 24.56 7.97 24.54 8.25L24.53 8.65C24.71 8.62 25.19 8.60 25.37 8.60L25.58 8.60L25.58 13.33C25.58 14.46 26.17 15.16 27.22 15.16C28.07 15.16 28.63 14.80 28.63 14.27C28.63 14.11 28.57 13.90 28.45 13.72C28.36 13.87 28.07 13.94 27.86 13.94C27.43 13.94 27.22 13.68 27.22 13.19L27.22 9.06L27.22 8.60L28.50 8.60C28.73 8.60 28.91 8.46 28.92 8.19L28.94 7.78C28.80 7.81 27.55 7.84 27.41 7.84ZM36.75 13.72C36.65 13.87 36.46 13.93 36.34 13.93C36.02 13.93 35.87 13.69 35.87 13.19L35.87 10.67C35.87 8.53 34.94 7.64 32.91 7.64C31.15 7.64 30.02 8.23 30.02 9.35C30.02 10.05 30.51 10.63 31.32 10.63C31.65 10.63 32.02 10.53 32.21 10.32C31.81 10.11 31.68 9.67 31.68 9.30C31.68 8.50 32.21 8.22 32.80 8.22C33.84 8.22 34.19 9.02 34.19 10.57L34.19 10.92C33.60 10.92 32.86 10.98 32.10 11.19C30.87 11.54 29.69 12.25 29.69 13.52C29.69 14.57 30.44 15.16 31.50 15.16C32.79 15.16 33.77 14.36 34.29 13.22C34.34 14.64 34.85 15.16 35.71 15.16C36.44 15.16 36.92 14.76 36.92 14.25C36.92 14.10 36.88 13.89 36.75 13.72ZM32.34 14.08C31.72 14.14 31.49 13.65 31.49 13.13C31.49 12.52 31.88 12.04 32.45 11.77C32.94 11.54 33.66 11.47 34.23 11.48C34.23 12.89 33.18 14.03 32.34 14.08ZM40.99 15.22C42.31 15.22 43.30 14.64 43.58 13.65C43.72 13.15 43.61 12.92 43.41 12.84C43.20 13.65 42.46 14.17 41.47 14.17C40.15 14.17 39.30 13.31 39.30 11.17C39.30 9.28 39.93 8.23 40.91 8.23C41.50 8.23 41.93 8.51 41.93 9.28C41.93 9.76 41.80 10.09 41.51 10.30C41.71 10.51 42.06 10.61 42.39 10.61C43.08 10.61 43.57 10.15 43.57 9.42C43.57 8.44 42.74 7.64 41.05 7.64C38.79 7.64 37.55 9.09 37.55 11.42C37.55 13.86 38.79 15.22 40.99 15.22ZM47.17 7.84L46.98 7.84C47.01 7.27 47.08 6.80 47.21 6.33C47.07 6.20 46.76 5.96 46.28 5.96C45.74 5.96 45.33 6.29 45.33 6.82L45.33 7.84L44.74 7.84C44.51 7.84 44.31 7.97 44.30 8.25L44.28 8.65C44.46 8.62 44.94 8.60 45.12 8.60L45.33 8.60L45.33 13.33C45.33 14.46 45.92 15.16 46.97 15.16C47.82 15.16 48.38 14.80 48.38 14.27C48.38 14.11 48.33 13.90 48.20 13.72C48.12 13.87 47.82 13.94 47.61 13.94C47.18 13.94 46.97 13.68 46.97 13.19L46.97 9.06L46.97 8.60L48.26 8.60C48.48 8.60 48.66 8.46 48.68 8.19L48.69 7.78C48.55 7.81 47.31 7.84 47.17 7.84ZM51.14 15.22C51.67 15.22 52.09 14.78 52.09 14.25C52.09 13.71 51.67 13.27 51.14 13.27C50.60 13.27 50.16 13.71 50.16 14.25C50.16 14.78 50.60 15.22 51.14 15.22ZM55.78 15.16C56.41 15.16 56.95 14.78 56.95 14.25C56.95 14.10 56.91 13.89 56.77 13.72C56.69 13.87 56.48 13.93 56.32 13.93C56 13.93 55.82 13.68 55.82 13.19L55.82 7.87C55.82 6.61 55.86 5.89 56.07 5.14C55.93 5.01 55.61 4.77 55.13 4.77C54.60 4.77 54.19 5.08 54.19 5.64L54.19 13.33C54.19 14.46 54.75 15.16 55.78 15.16ZM64.05 8.58C64.05 7.99 63.63 7.64 63.11 7.64C62.65 7.64 62.31 7.87 62.17 7.99C62.44 8.67 62.44 9.16 62.44 11.10C62.44 13.31 61.73 14.32 60.80 14.32C59.98 14.32 59.75 13.55 59.75 12.03L59.75 8.50C59.75 7.95 59.35 7.64 58.81 7.64C58.38 7.64 58.09 7.83 57.86 7.99C58.07 8.55 58.11 9.25 58.11 9.72L58.11 12.26C58.11 14.35 58.84 15.13 60.28 15.13C61.52 15.13 62.27 14.48 62.64 13.37C62.58 13.79 62.54 14.24 62.54 14.49C62.54 16.45 61.88 17.67 60.56 17.67C59.91 17.67 59.47 17.30 59.47 16.70C59.47 16.48 59.57 16.20 59.85 16.00C59.71 15.82 59.44 15.72 59.11 15.72C58.42 15.72 57.96 16.14 57.96 16.72C57.96 17.86 59.21 18.20 60.54 18.20C62.58 18.20 64.06 17.21 64.06 14.29Z"></path></g><defs data-v-fde0c5aa=""><linearGradient data-v-fde0c5aa="" gradientTransform="rotate(25)" id="badd5261-ebad-444a-8390-2dd5d0b9eebb" x1="0%" y1="0%" x2="100%" y2="0%"><stop data-v-fde0c5aa="" offset="0%" stop-color="#EB6E00" stop-opacity="1"></stop><stop data-v-fde0c5aa="" offset="100%" stop-color="#F3BCE6" stop-opacity="1"></stop></linearGradient></defs><g data-v-fde0c5aa="" id="bf67b85c-ab24-4cf4-91ee-6aa6f5d3a643" stroke="none" fill="url(#badd5261-ebad-444a-8390-2dd5d0b9eebb)" transform="matrix(3.4449488589689232,0,0,3.4449488589689232,94.88081825649724,58.32122738474584)"><path d="M0 32h32V0H0v32zM2 2h2.981L16.01 21.103 27.04 2H30v28H2V2z"></path></g><!----></svg>